<?xml version="1.0" encoding="UTF-8"?>
<svg id="Layer_1" data-name="Layer 1" xmlns="http://www.w3.org/2000/svg" version="1.1" viewBox="0 0 258 181">
  <defs>
    <style>
      .cls-1 {
        fill: #c93732;
      }

      .cls-1, .cls-2, .cls-3 {
        stroke-width: 0px;
      }

      .cls-1, .cls-3 {
        fill-rule: evenodd;
      }

      .cls-2, .cls-3 {
        fill: #58595b;
      }
    </style>
  </defs>
  <g>
    <polygon class="cls-3" points="1.9 168.7 8.1 168.7 8.1 170.6 4.3 170.6 4.3 173.1 7.8 173.1 7.8 175 4.3 175 4.3 177.6 8.2 177.6 8.2 179.5 1.9 179.5 1.9 168.7"/>
    <path class="cls-3" d="M16.9,178.8c-.7.6-1.4.8-2.5.8-2.5,0-4.3-2.1-4.3-5.4s1.7-5.6,4.3-5.6,1.7.2,2.4.6v2.1c-.8-.5-1.3-.6-1.8-.6-1.4,0-2.4,1.1-2.4,3.4s.8,3.5,2.3,3.5,1.3-.3,2-.9v2.1h0Z"/>
    <path class="cls-3" d="M23.3,168.6c2,0,4.2,1.5,4.2,5.5s-2.4,5.5-4.2,5.5-4.2-1.6-4.2-5.6,2.1-5.4,4.2-5.4M23.3,177.5c1.1,0,1.7-.8,1.7-3.4s-.3-3.4-1.7-3.4-1.7,1.3-1.7,3.4.4,3.4,1.7,3.4"/>
    <polygon class="cls-3" points="29.9 168.7 32.1 168.7 35 174.8 35 174.8 35 168.7 37.3 168.7 37.3 179.5 35.2 179.5 32.2 173.2 32.2 173.2 32.2 179.5 29.9 179.5 29.9 168.7"/>
    <path class="cls-3" d="M43.9,168.6c2,0,4.2,1.5,4.2,5.5s-2.4,5.5-4.2,5.5-4.2-1.6-4.2-5.6,2.1-5.4,4.2-5.4M43.9,177.5c1.1,0,1.7-.8,1.7-3.4s-.3-3.4-1.7-3.4-1.7,1.3-1.7,3.4.4,3.4,1.7,3.4"/>
    <polygon class="cls-3" points="50.6 168.7 52.7 168.7 55.2 173.2 57.6 168.7 59.8 168.7 59.8 179.5 57.5 179.5 57.5 172.6 57.5 172.6 55.4 176.7 54.9 176.7 52.9 172.6 52.8 172.6 52.8 179.5 50.6 179.5 50.6 168.7"/>
    <polygon class="cls-3" points="64.7 174.6 61.7 168.7 64.3 168.7 65.9 172.1 67.2 168.7 69.8 168.7 67.1 174.6 67.1 179.5 64.7 179.5 64.7 174.6"/>
    <polygon class="cls-3" points="95.6 168.7 101.8 168.7 101.8 170.6 98 170.6 98 173.1 101.5 173.1 101.5 175 98 175 98 177.6 102 177.6 102 179.5 95.6 179.5 95.6 168.7"/>
    <polygon class="cls-3" points="106.7 173.8 103.9 168.7 106.5 168.7 108 171.7 109.6 168.7 112.2 168.7 109.4 173.8 112.5 179.5 109.9 179.5 108 176 106.2 179.5 103.6 179.5 106.7 173.8"/>
    <path class="cls-3" d="M120.8,178.8c-.7.6-1.4.8-2.5.8-2.5,0-4.3-2.1-4.3-5.4s1.7-5.6,4.3-5.6,1.7.2,2.4.6v2.1c-.8-.5-1.3-.6-1.8-.6-1.4,0-2.4,1.1-2.4,3.4s.8,3.5,2.3,3.5,1.3-.3,2-.9v2.1h0Z"/>
    <polygon class="cls-3" points="123.4 168.7 129.6 168.7 129.6 170.6 125.8 170.6 125.8 173.1 129.3 173.1 129.3 175 125.8 175 125.8 177.6 129.7 177.6 129.7 179.5 123.4 179.5 123.4 168.7"/>
    <polygon class="cls-3" points="132.1 168.7 134.5 168.7 134.5 177.5 138.4 177.5 138.4 179.5 132.1 179.5 132.1 168.7"/>
    <polygon class="cls-3" points="140.3 168.7 142.7 168.7 142.7 177.5 146.6 177.5 146.6 179.5 140.3 179.5 140.3 168.7"/>
    <polygon class="cls-3" points="148.5 168.7 154.7 168.7 154.7 170.6 150.9 170.6 150.9 173.1 154.5 173.1 154.5 175 150.9 175 150.9 177.6 154.9 177.6 154.9 179.5 148.5 179.5 148.5 168.7"/>
    <polygon class="cls-3" points="157.3 168.7 159.5 168.7 162.4 174.8 162.4 174.8 162.4 168.7 164.7 168.7 164.7 179.5 162.6 179.5 159.6 173.2 159.6 173.2 159.6 179.5 157.3 179.5 157.3 168.7"/>
    <path class="cls-3" d="M173.9,178.8c-.7.6-1.4.8-2.5.8-2.5,0-4.3-2.1-4.3-5.4s1.7-5.6,4.3-5.6,1.7.2,2.4.6v2.1c-.8-.5-1.3-.6-1.8-.6-1.4,0-2.4,1.1-2.4,3.4s.8,3.5,2.3,3.5,1.3-.3,2-.9v2.1h0Z"/>
    <polygon class="cls-3" points="176.5 168.7 182.6 168.7 182.6 170.6 178.9 170.6 178.9 173.1 182.4 173.1 182.4 175 178.9 175 178.9 177.6 182.8 177.6 182.8 179.5 176.5 179.5 176.5 168.7"/>
    <polygon class="cls-3" points="209 168.7 215.2 168.7 215.2 170.6 211.4 170.6 211.4 173.1 214.9 173.1 214.9 175 211.4 175 211.4 177.6 215.3 177.6 215.3 179.5 209 179.5 209 168.7"/>
    <polygon class="cls-3" points="219.3 170.6 216.9 170.6 216.9 168.7 224.2 168.7 224.2 170.6 221.7 170.6 221.7 179.5 219.3 179.5 219.3 170.6"/>
    <polygon class="cls-3" points="226.2 168.7 228.7 168.7 228.7 173.1 231.3 173.1 231.3 168.7 233.7 168.7 233.7 179.5 231.3 179.5 231.3 175 228.7 175 228.7 179.5 226.2 179.5 226.2 168.7"/>
    <rect class="cls-2" x="236.6" y="168.7" width="2.4" height="10.7"/>
    <path class="cls-3" d="M248.2,178.8c-.7.6-1.4.8-2.5.8-2.5,0-4.3-2.1-4.3-5.4s1.7-5.6,4.3-5.6,1.7.2,2.4.6v2.1c-.8-.5-1.3-.6-1.8-.6-1.4,0-2.4,1.1-2.4,3.4s.8,3.5,2.3,3.5,1.3-.3,2-.9v2.1h0Z"/>
    <path class="cls-3" d="M250.4,176.5c1,.8,1.6,1.1,2.2,1.1s1-.4,1-.9c0-1.6-3.3-2.7-3.3-5.4s1.3-2.7,3-2.7,1.5.2,2.3.7v2c-1.1-.6-1.5-.8-2.1-.8s-1,.3-1,.7c0,1.3,3.4,2.8,3.4,5.4s-1.3,3-3.1,3-1.6-.3-2.6-.9v-2.3h.2Z"/>
    <polygon class="cls-3" points="82.7 169.9 86.6 173.9 82.7 177.9 78.7 173.9 82.7 169.9"/>
    <polygon class="cls-3" points="195.7 169.9 199.7 173.9 195.7 177.9 191.8 173.9 195.7 169.9"/>
  </g>
  <path class="cls-3" d="M176.1,147.3h-1.6v-2.1h1.4c1,0,1.6.4,1.6,1s-.4,1.1-1.4,1.1M177.1,148.3h0c1.3-.2,2-1,2-2.2s-.8-2.1-2.4-2.1h-3.7v7.7h1.5v-3.1h.3c.7,0,.9,0,1.3.4.3.3.8,1,1,1.5l.6,1.3h1.9l-.9-1.5c-.8-1.4-1-1.6-1.6-1.8M176.2,153.6c3.2,0,5.8-2.6,5.8-5.8s-2.6-5.8-5.8-5.8-5.7,2.6-5.7,5.8,2.6,5.8,5.7,5.8M176.2,140.6c-4,0-7.2,3.2-7.2,7.2s3.2,7.2,7.2,7.2,7.2-3.2,7.2-7.2-3.2-7.2-7.2-7.2"/>
  <path class="cls-1" d="M113.1,135.2c.5-1,1.4-2.2,2.3-6.7-3-3.9-7.9-12.4-7.9-12.4,0,0,1.7,14.5,2.4,19.2h3.2ZM106.5,121.5l1.2,13.7h-6.2c3.5-3.7,5-13.7,5-13.7M117.9,122.6h8.4c0,0-1.4-4.5-4.5-8.4l-4.5,1.8c.8,4.7.6,6.6.6,6.6M146.5,44.2l9.4,3.9c1.2-2.4,5.9-6.9,5.9-6.9l-8.7-3.6c-.9.4-3.1,2.3-6.6,6.7M103.8,140.4c.6.9,0,2,0,2h42.5s-.9-1.3.1-2.6c1.1-1.4,1.9-.7,2.5-2.6l-48.6.4c.8,1.4,2.7,1.7,3.5,2.7M160.2,149.7h-69.2v-40.9h69.2v40.9ZM195.6,89.1c-2.4,0-4.6-5-4.6-13.3s1.1-9.7,2.8-13.3c2.4,3.4,5.9,3.5,9.2,2.4.2,1.6.2,3.4.2,5.4,0,8.3-3.9,18.9-7.6,18.9M196.6,57.7c.4-1,2.1-1.4,3.7-1,1.6.4,2.6,1.5,2.2,2.4-.4.9-2.1,1.4-3.7,1-1.6-.4-2.6-1.5-2.2-2.4M102.6,57.4c2.3,0-1.5,13.3-7.8,15.6.5-9.5,5.3-15.9,7.8-15.6M208.7,56c5.2-2.4,14.6,6,14.6,23.4s-22.7,47.5-57.8,57.3v18.3h-79.7v-19.2c-35.1-10.9-49.3-33.3-49.3-35.2h20.3s9.2,10.8,29,18.9v-16.1h79.7v20.8c34.7-8.7,52.7-30.6,52.7-47.6s-2-15.1-7.2-16.6c1.1,2.9,1.6,6.3,1.6,10.1,0,12.1-7.8,24-17.2,24s-7.6-1.7-9.8-4.3c-.5.7-1.3,1.6-2.4,2.4-1.3.9-3.2,1.9-5.4,1.9-5.5,0-12.1-9.2-12.1-18.8s.2-5.6.6-7.9c-1.7,2.8-3.7,7-3.7,11.3s0,2.9.2,4.2c.3,2.2.7,4.2,1,5.9v.2c.5,2.4.8,4,.8,4h-7.2s-.6-1.3-1.4-3.4c0,.2-.2.3-.3.5-.2.4-2.4,4-6.3,4s-5.2-1.9-7.5-4.9c-.4.9-1.1,2.1-2.3,3.1-1,.8-2.8,1.8-5.6,1.8-5.5,0-11.9-7.7-11.9-17.2s.8-10.8,1.8-14.3c-1.5-.9-2.6-2.2-3.8-3.5,0,1.6,0,3.3-.3,4.9-1,12.3-5.9,20.6-10.8,25-3.1,2.7-6.6,5.1-9.8,5.1s-7.3-1.5-9.5-4.1c-.4.8-1.1,1.7-1.9,2.3-1,.7-2.5,1.5-4.7,1.5-6.3,0-12.6-8.9-12.6-18.5s.2-5.5.4-7.6c-1.7,2.8-3.6,6.9-3.6,11.1s0,3.1.2,4.4c.5,3.5,1.2,6.8,2,9.9h-7.2c-1.7-3-4.9-10.5-4.9-18.4s.4-7.6.9-10.7c-.8,1-6.2,7.7-6.2,14.8s0,3.4.2,4.8c.4,3.4,1.1,6.5,1.9,9.5h-7.2c-1.7-3-4.9-10.5-4.9-18.4s.2-5.9.6-8.4c-3.5-.6-7.8-2.6-7.8-9.4-.1-21.8,35.3-55.5,93.3-55.5s78.8,18,92.5,41.5h-20.6c-13.3-17.5-47.3-27.7-72.1-27.7-69.3,0-87.3,35.1-87.3,42.1s1.3,3.4,2.7,3.8c1.4-6.4,3.4-10.2,3.4-10.2l9.8,3.7s-1.7,3.9-3.1,8.7c2.6-2.8,5.4-6.8,8.3-12.1v.3c0-.4.2-.7.2-.7l9.8,3.7s-1.7,3.9-3.1,8.7c2.6-2.8,5.4-6.8,8.3-12.1h0l9.5,3.8s-7.6,11.6-7.6,23.7,2.2,10.7,4.6,10.7,1.7-.3,2.2-.7h0c.4-.3.6-.5.7-.6.2-.3.5-.6.7-1-1.9-3.7-2.6-8.4-2.6-13.1,0-11.1,6.8-22.8,17.4-22.8s7.5,3.8,7.5,7.5c0,9.7-8.5,17.2-14.9,18.9.4,7.3,2.9,11.9,5.6,11.9s4.3-1.4,6.2-3.6c.2-.3,6-7.1,5.9-20.5,0-6.1-1.7-11.7-1.7-11.7l9.1-5c0,1,4,6.9,7.2,6.7.5-.8.9-1.2.9-1.2l7.8,3.6s-5.6,9.6-5.6,21.6,3.7,10,5.7,10,1.5-.3,1.8-.5c.4-.3,1.3-1,2-2.9-1.7-3.2-2.8-7.1-2.8-10.9,0-16.8,6.9-24.3,6.9-24.3l9.4,3.8s-7.6,11.6-7.6,23.7,2.6,11.1,4.6,11.1,1.2-.2,1.7-.4h0c.2-.2.7-.4,1.2-.9.1,0,.2-.2.2-.2.5-.5.9-1.1,1.1-1.9-1.1-3.4-2.1-7.6-2.1-11.2,0-14.4,4.9-24,4.9-24l9.8,3.7s-1.8,4.1-3.2,9c2.7-2.8,5.6-6.9,8.7-12.4l9.4,3.8s-7.6,11.6-7.6,23.7,2.7,10.7,4.6,10.7,3.1-1.3,3.1-1.3c.5-.5.8-1.1,1.1-1.9-1.5-3.5-2.2-7.9-2.2-12.2,0-11.1,7.5-22.8,18.2-22.8s7.2,1.7,9.4,4.8M144.2,135.2l7.4-2.3c-4.8-3.4-12-15.6-12-15.6,0,0,6.2,14,4.6,18M115.1,135.2s2.6-4,2.7-10.6h8.9c1.9,5.4,1.1,10.6,1.1,10.6,0,0-8-1.5-12.7,0M142,135.2c.4-2.7,0-5-1.2-9.1h-9.3c0,5.2-1.9,8.5-2,9.1,4.3-1.6,12.5,0,12.5,0M131.2,123.9l8.8.2s-1.9-4.9-4.6-8.5l-4.7,1.7c.4,1.4.7,4.7.5,6.5"/>
</svg>